<?xml version="1.0" standalone="no"?>
<!DOCTYPE svg PUBLIC "-//W3C//DTD SVG 20010904//EN"
 "http://www.w3.org/TR/2001/REC-SVG-20010904/DTD/svg10.dtd">
<svg version="1.0" xmlns="http://www.w3.org/2000/svg"
 width="959.000000pt" height="959.000000pt" viewBox="0 0 959.000000 959.000000"
 preserveAspectRatio="xMidYMid meet">
<metadata>
Created by potrace 1.14, written by Peter Selinger 2001-2017
</metadata>
<g transform="translate(0.000000,959.000000) scale(0.100000,-0.100000)"
fill="#000000" stroke="none">
<path d="M0 6281 l0 -3309 53 -12 c28 -6 86 -14 127 -17 41 -3 97 -11 123 -19
114 -32 291 -28 467 12 231 51 293 67 455 112 245 69 741 244 907 321 81 37
87 38 142 7 24 -13 77 -33 119 -44 42 -11 88 -27 102 -36 24 -16 24 -18 10
-44 -35 -63 -272 -208 -525 -320 -80 -35 -293 -100 -350 -107 -30 -4 -82 -15
-115 -26 -33 -10 -116 -28 -185 -40 -165 -27 -593 -36 -745 -14 -156 22 -428
97 -522 144 -23 12 -47 21 -53 21 -7 0 -10 -88 -10 -269 l0 -269 45 -6 c44 -7
58 -19 32 -29 -7 -4 -3 -8 10 -12 13 -4 23 -11 23 -16 0 -4 39 -7 88 -6 98 2
232 -32 232 -58 0 -11 8 -13 32 -8 18 3 34 7 36 9 2 1 28 -11 59 -27 53 -28
111 -39 98 -20 -9 15 14 24 42 16 24 -6 24 -7 8 -19 -16 -12 -13 -15 34 -26
46 -11 54 -10 64 4 8 10 27 17 47 18 45 0 92 19 86 35 -6 15 51 28 67 15 23
-17 62 2 65 31 3 28 3 28 -35 21 -34 -6 -37 -5 -25 8 9 11 24 15 50 11 39 -5
93 21 62 30 -81 23 -105 35 -108 55 -2 15 2 22 12 22 9 0 16 -7 16 -15 0 -8 7
-15 15 -15 8 0 15 7 15 15 0 8 -7 15 -15 15 -8 0 -15 3 -15 8 0 4 -43 8 -95 9
-78 1 -100 5 -121 22 -14 11 -24 23 -22 28 2 4 -7 9 -19 11 -30 4 -29 16 4 31
17 8 29 9 36 2 5 -5 15 -7 22 -5 6 3 45 -2 86 -11 41 -8 89 -15 107 -15 18 0
41 -4 50 -9 10 -5 150 -12 312 -14 381 -7 420 -8 426 -19 3 -4 16 -8 30 -8 14
0 23 -5 22 -12 -2 -7 7 -14 20 -16 32 -5 17 -22 -19 -22 -37 0 -69 -16 -69
-34 0 -8 -8 -16 -17 -20 -10 -3 -40 -19 -68 -36 -27 -17 -58 -33 -67 -36 -10
-4 -20 -15 -24 -26 -3 -10 -17 -24 -30 -30 -13 -6 -24 -17 -24 -23 0 -15 -23
-36 -42 -39 -7 -1 -18 -5 -24 -9 -7 -4 -14 0 -17 8 -8 20 -73 31 -92 15 -8 -7
-12 -16 -9 -21 3 -5 -2 -12 -10 -15 -25 -9 -19 -24 9 -24 14 0 42 -7 61 -15
20 -8 40 -13 44 -10 4 3 13 -8 18 -25 9 -25 8 -31 -8 -40 -33 -18 -71 -12 -77
11 -5 16 -11 19 -32 14 -14 -4 -33 -13 -42 -21 -8 -8 -22 -14 -30 -14 -17 0
-71 -55 -62 -63 6 -6 56 0 83 10 8 4 26 8 40 10 14 2 30 11 37 20 11 14 14 13
24 -10 12 -27 2 -47 -31 -60 -12 -4 -11 -6 3 -6 9 -1 17 -8 17 -17 0 -8 -5
-12 -10 -9 -6 4 -18 1 -26 -6 -11 -9 -18 -9 -26 -1 -13 13 -74 -19 -101 -54
l-17 -23 44 -6 c46 -7 65 -32 42 -55 -8 -8 -4 -10 16 -6 37 6 50 -29 19 -50
-24 -17 -26 -36 -9 -63 14 -22 1 -38 -47 -60 -17 -8 -24 -16 -17 -18 6 -3 12
-17 12 -33 0 -23 -5 -29 -30 -33 -30 -7 -42 -27 -16 -27 15 0 46 -36 46 -53 0
-5 -7 -7 -15 -3 -12 4 -15 -3 -15 -29 0 -28 4 -35 19 -35 11 0 27 -7 36 -16 9
-9 19 -14 22 -10 3 3 11 2 17 -3 6 -4 25 -11 43 -14 27 -5 32 -3 37 19 5 20
10 23 20 15 14 -12 26 -5 26 16 0 8 -12 13 -29 13 -17 0 -33 5 -36 10 -3 5 -1
10 4 10 6 0 11 7 11 15 0 10 10 15 28 15 15 0 33 5 40 12 9 9 13 7 18 -5 8
-23 55 -22 105 2 21 11 37 15 33 10 -8 -13 20 -11 33 2 8 8 17 8 31 0 11 -6
32 -10 48 -10 16 0 54 0 85 0 31 0 69 3 85 8 16 4 43 5 59 1 17 -4 57 -5 90
-3 33 2 79 4 103 3 23 0 42 4 42 10 0 17 26 11 45 -10 10 -11 31 -20 47 -20
31 0 34 -6 13 -34 -13 -17 -18 -17 -45 -6 -36 15 -45 8 -55 -37 -5 -24 -3 -33
7 -35 20 -2 87 -8 148 -13 30 -2 74 -6 97 -10 25 -4 44 -2 48 5 6 10 35 8 110
-5 11 -2 23 -4 28 -4 4 -1 7 -8 7 -16 0 -9 9 -15 25 -15 21 0 25 -5 25 -30 0
-23 -5 -30 -19 -30 -11 0 -23 4 -26 10 -3 5 -15 10 -27 10 -15 0 -19 -5 -15
-20 4 -14 -4 -25 -29 -40 -32 -20 -43 -21 -231 -16 -109 3 -238 7 -288 9 -49
2 -112 5 -138 6 -39 1 -47 4 -45 18 2 11 -7 20 -27 26 -16 5 -53 21 -82 34
-29 14 -56 22 -61 19 -6 -3 -15 1 -22 10 -11 12 -11 17 0 27 10 9 13 9 17 0 3
-7 10 -13 17 -13 13 0 56 36 56 48 0 4 -36 8 -80 8 -81 2 -93 -3 -64 -27 14
-12 14 -14 -3 -20 -13 -4 -27 4 -51 28 -23 24 -39 34 -52 30 -11 -3 -20 -1
-20 4 0 17 -25 9 -38 -11 -7 -11 -19 -20 -26 -20 -8 0 -16 -10 -18 -22 -4 -28
-46 -41 -70 -20 -19 16 -50 10 -46 -9 2 -7 -15 -16 -40 -21 -37 -8 -46 -7 -56
8 -8 11 -21 15 -34 12 -13 -4 -23 0 -26 9 -4 10 -14 13 -27 10 -15 -4 -23 0
-26 14 -5 16 -14 19 -62 17 -121 -3 -211 4 -219 17 -4 6 -17 17 -29 24 -13 6
-23 19 -23 27 0 10 -6 14 -14 11 -21 -8 -76 15 -76 31 0 8 6 12 15 8 23 -8 18
4 -10 26 -35 27 -27 44 19 40 32 -3 37 -1 34 15 -5 24 -35 28 -59 7 -10 -9
-19 -14 -19 -9 0 4 -7 2 -15 -5 -12 -10 -16 -9 -22 6 -12 35 -71 80 -126 98
-13 4 -16 12 -12 25 7 23 -12 38 -28 22 -15 -15 -28 -14 -26 2 3 25 -1 37 -14
37 -7 0 -21 14 -30 30 -14 23 -25 30 -48 30 -30 0 -32 3 -44 53 -4 20 -15 31
-35 39 -17 5 -30 17 -30 25 0 21 -43 70 -58 65 -17 -5 -27 27 -13 41 6 6 19
12 28 12 9 0 18 6 21 13 3 10 -7 12 -39 10 -37 -3 -44 -7 -49 -28 -5 -18 -12
-24 -26 -22 -31 6 -41 22 -22 33 28 16 22 25 -32 48 -40 17 -50 26 -50 45 0
17 -7 25 -25 28 l-25 5 1 -233 0 -234 25 0 c14 0 24 6 24 14 0 8 7 22 16 31 9
8 14 22 11 29 -5 12 -1 12 28 0 19 -8 47 -14 62 -15 25 0 26 -1 8 -9 -15 -7
-10 -9 25 -9 34 -1 41 -4 32 -13 -7 -7 -12 -22 -12 -35 0 -13 -4 -23 -10 -23
-5 0 -10 -7 -10 -15 0 -8 -6 -15 -13 -15 -16 0 -51 40 -41 48 4 4 9 1 11 -5 5
-15 39 -17 47 -4 11 17 -5 38 -40 54 -39 19 -80 22 -89 7 -3 -5 0 -10 8 -10
19 0 30 -42 14 -52 -6 -4 -17 -2 -23 3 -8 7 -17 4 -28 -7 -9 -9 -23 -13 -31
-10 -13 5 -15 -14 -15 -120 0 -93 3 -123 12 -118 8 5 9 2 4 -12 -5 -10 -11
-52 -14 -93 -4 -62 -2 -75 12 -83 9 -5 14 -13 11 -19 -4 -5 9 -9 27 -10 18 0
27 -3 20 -6 -6 -2 -12 -11 -12 -19 0 -8 -13 -17 -30 -20 l-29 -6 -1 -544 0
-544 540 0 540 0 6 24 c7 28 -1 46 -20 46 -7 0 -21 9 -31 20 -10 11 -31 20
-47 20 -29 0 -40 24 -16 33 7 3 -2 8 -20 12 -41 9 -50 23 -19 30 12 4 29 15
36 26 11 19 10 20 -10 14 -20 -7 -21 -5 -15 30 6 29 4 35 -6 29 -32 -18 -38
-27 -28 -39 8 -9 5 -14 -10 -18 -16 -4 -23 2 -34 28 -8 18 -28 43 -45 56 l-31
23 38 13 c20 7 50 13 66 13 16 0 26 3 23 7 -4 3 -22 6 -41 5 -40 -2 -65 20
-48 41 9 10 8 19 -3 34 -20 28 -30 99 -16 107 8 5 7 14 -4 29 -8 12 -15 28
-15 36 0 7 -8 20 -18 28 -14 11 -10 11 20 -1 22 -9 40 -11 43 -5 8 12 -3 29
-20 29 -17 0 -25 22 -18 49 5 21 33 30 33 11 0 -5 -5 -10 -11 -10 -5 0 -7 -4
-4 -10 3 -5 12 -10 19 -10 19 0 26 47 10 61 -19 15 -18 49 1 49 8 0 15 -4 15
-10 0 -5 7 -10 15 -10 13 0 14 4 5 21 -15 28 -10 31 24 14 39 -21 52 -19 32 4
-17 18 -16 20 4 26 12 4 27 2 33 -4 15 -15 33 -14 51 5 15 14 16 14 16 -5 0
-12 5 -21 10 -21 6 0 10 7 10 15 0 17 35 20 72 6 13 -4 40 -11 62 -15 l38 -7
-6 37 c-7 36 -7 36 23 32 17 -2 32 -1 33 3 2 4 23 9 47 11 49 3 68 -16 29 -31
-22 -8 -22 -9 10 -16 25 -5 38 -3 52 10 18 16 20 16 37 -4 9 -12 22 -21 28
-21 6 0 20 -6 30 -14 17 -12 17 -16 6 -30 -9 -10 -13 -37 -12 -71 1 -43 -2
-55 -14 -55 -10 0 -15 -10 -15 -31 0 -16 4 -28 9 -24 5 3 16 -3 23 -13 7 -11
28 -23 47 -27 20 -4 35 -14 38 -26 6 -21 33 -32 55 -24 9 4 33 -1 54 -10 46
-19 174 -50 192 -46 8 1 25 -5 38 -14 14 -9 29 -13 35 -10 5 4 16 1 24 -5 8
-7 25 -10 38 -6 12 3 35 -1 51 -9 16 -8 58 -15 95 -16 50 -1 60 -3 41 -9 -20
-7 -14 -9 25 -8 34 1 49 -2 47 -10 -1 -8 12 -12 36 -12 21 0 57 -9 80 -20 22
-11 46 -20 53 -20 9 0 9 -3 0 -14 -10 -11 -8 -16 6 -24 17 -10 17 -11 0 -29
-19 -22 -23 -73 -5 -73 6 0 19 -7 29 -16 9 -8 29 -16 43 -18 15 -2 40 -13 57
-25 16 -12 40 -22 52 -21 39 4 57 0 57 -10 0 -5 -9 -10 -20 -10 -26 0 -25 -22
3 -65 l22 -35 117 0 c67 0 119 4 123 10 8 13 215 13 215 0 0 -7 350 -10 1030
-10 998 0 1032 1 1071 19 27 13 51 18 74 14 35 -6 73 3 61 14 -8 8 -124 21
-301 32 -149 10 -195 18 -448 79 -89 22 -191 44 -227 50 -169 28 -299 54 -345
69 -87 27 -215 92 -274 137 -154 121 -217 211 -208 300 8 88 54 92 145 12 89
-79 182 -138 299 -188 140 -60 163 -75 203 -133 49 -72 81 -85 243 -102 78 -8
183 -22 232 -31 69 -13 149 -17 345 -17 253 0 256 0 405 34 132 30 269 70 345
103 14 5 39 16 55 23 17 7 75 33 130 59 55 25 106 46 113 46 6 0 12 5 12 10 0
14 -17 12 -43 -4 -12 -8 -40 -17 -62 -21 l-40 -7 31 20 c17 11 41 34 54 52 18
25 27 30 47 25 25 -6 91 19 141 53 15 10 40 23 55 30 23 10 29 9 34 -4 4 -11
-3 -24 -18 -36 l-24 -20 37 6 c21 2 40 1 43 -3 2 -5 24 -11 49 -14 24 -4 68
-17 97 -31 89 -40 207 -76 247 -75 l37 1 -35 10 c-92 27 -127 68 -73 89 23 8
33 39 13 39 -5 0 -10 -4 -10 -8 0 -16 -58 -28 -120 -25 -52 3 -70 8 -89 27
-18 19 -21 28 -13 42 9 17 140 96 203 124 13 5 33 16 44 22 11 7 49 31 85 54
36 22 90 56 120 74 109 68 325 227 414 305 221 194 306 293 449 518 21 33 45
66 53 74 8 8 14 18 14 23 0 5 12 24 28 42 36 43 62 92 62 115 0 10 7 31 15 47
8 15 15 42 15 60 1 34 16 59 43 69 9 3 17 13 17 21 0 8 8 17 18 21 18 6 117
147 141 202 6 12 26 56 46 98 19 41 35 79 35 83 0 5 9 26 20 48 l21 39 -6 -33
c-4 -17 -5 -32 -2 -32 4 0 62 117 77 155 24 61 85 309 127 510 28 137 37 207
39 295 l2 115 27 3 c15 2 32 -1 37 -6 8 -8 60 1 76 13 1 1 -15 33 -36 71 -27
47 -46 70 -61 72 -28 4 -27 18 3 37 23 15 62 106 99 230 8 28 27 88 41 135 14
47 26 112 28 145 2 69 20 117 35 91 7 -13 15 -13 58 -2 52 13 60 30 31 66 -7
8 -20 31 -31 52 -11 22 -24 34 -32 31 -8 -3 -23 3 -33 12 -22 20 -26 35 -10
35 6 0 10 -7 10 -15 0 -21 27 -19 38 2 5 10 20 47 32 83 37 105 140 311 152
304 7 -5 8 -2 3 6 -7 11 27 92 45 110 3 3 10 16 16 30 9 20 10 8 7 -59 -2 -46
1 -88 5 -95 5 -6 12 -23 16 -37 6 -28 -2 -52 -59 -174 -18 -38 -45 -108 -60
-155 -15 -47 -36 -110 -45 -140 -10 -30 -26 -89 -35 -130 -9 -41 -20 -84 -25
-96 -4 -11 -11 -51 -15 -87 -4 -37 -11 -67 -16 -67 -5 0 -9 -11 -9 -25 0 -15
-6 -38 -14 -53 -8 -15 -19 -50 -24 -77 -13 -66 -65 -242 -85 -285 -20 -46 -57
-201 -57 -240 0 -17 6 -38 14 -45 12 -12 16 -11 31 5 10 11 24 20 32 20 16 0
93 47 93 57 0 4 -10 27 -22 51 -11 25 -22 61 -24 81 -3 32 -2 33 7 12 9 -22
11 -23 27 -7 10 9 22 16 25 16 13 0 7 -23 -9 -35 -13 -9 -14 -16 -5 -33 6 -11
12 -42 12 -69 1 -27 4 -37 6 -23 3 14 9 30 15 37 5 7 7 16 4 21 -11 18 -16 72
-7 72 5 0 13 9 16 21 4 11 22 47 42 79 38 65 106 249 130 355 17 78 29 105 44
105 6 0 26 12 45 26 19 15 37 24 40 21 3 -2 -2 -40 -11 -83 -9 -44 -21 -101
-26 -129 -6 -27 -15 -54 -20 -60 -5 -5 -9 -16 -9 -24 0 -8 -16 -50 -36 -92
-26 -56 -35 -85 -30 -103 3 -14 10 -26 15 -26 10 0 45 52 91 135 18 33 42 76
53 95 12 22 15 36 8 38 -21 7 -11 34 25 70 19 19 38 48 41 64 3 15 9 28 14 28
15 0 10 59 -7 91 -11 23 -14 44 -8 85 5 40 3 54 -6 54 -8 0 -10 8 -7 21 3 12
3 35 0 51 -5 26 -7 27 -19 11 -7 -10 -14 -31 -14 -46 0 -15 -7 -44 -15 -64 -8
-19 -15 -48 -15 -64 0 -42 -21 -28 -53 35 -32 62 -32 67 -11 143 9 32 20 76
25 98 12 47 65 208 82 247 6 15 14 25 18 22 4 -2 10 4 14 14 5 12 12 3 24 -37
20 -63 41 -79 41 -32 0 17 4 31 9 31 27 0 51 194 31 254 -6 20 -17 36 -23 36
-22 0 -57 65 -58 106 0 21 -3 34 -5 28 -7 -18 -42 -5 -64 24 -13 16 -20 41
-21 71 l-1 46 -10 -32 c-8 -25 -17 -33 -34 -33 -12 0 -25 -6 -27 -12 -3 -8 -6
-7 -6 4 -1 24 -17 31 -34 14 -13 -13 -15 0 -19 107 -3 67 -3 124 -1 127 2 2
13 -1 23 -8 27 -16 27 -16 45 19 15 29 15 32 -2 51 -10 11 -42 34 -70 50 -29
17 -53 33 -53 37 0 4 -20 37 -44 74 -24 36 -41 69 -38 71 10 10 135 -65 194
-116 32 -28 61 -48 65 -45 14 14 -26 77 -92 143 -52 52 -93 82 -160 116 -100
51 -274 113 -286 101 -8 -8 -3 -34 29 -148 11 -38 28 -112 37 -163 15 -79 15
-103 5 -160 -15 -81 -76 -232 -110 -273 -30 -36 -79 -45 -121 -24 -15 8 -41
17 -58 18 -16 2 -40 11 -53 19 -13 9 -44 23 -69 31 -25 8 -66 27 -92 41 -27
14 -54 23 -62 20 -16 -7 -99 74 -206 201 -39 47 -74 85 -78 85 -3 0 -35 27
-71 61 -64 60 -153 120 -198 134 -42 12 -53 75 -12 75 22 0 60 41 43 47 -7 3
-13 12 -13 20 0 11 7 14 25 10 19 -3 29 1 37 17 6 11 19 29 30 39 12 12 17 26
13 38 -5 13 -2 19 10 19 14 0 16 8 10 58 -9 85 -13 99 -31 106 -25 9 -30 -1
-11 -22 10 -10 17 -24 17 -30 0 -20 -35 -78 -78 -130 -23 -27 -42 -59 -42 -71
0 -14 -6 -21 -19 -21 -10 0 -42 -25 -70 -55 l-52 -55 -19 22 c-24 28 -27 88
-5 88 8 0 15 -6 15 -12 1 -17 80 73 80 90 0 6 -6 12 -14 12 -19 0 -36 52 -24
73 7 14 5 17 -13 17 -26 0 -149 -119 -149 -144 0 -9 -6 -17 -12 -17 -63 -7
-88 -7 -93 1 -4 6 -13 7 -24 1 -13 -8 -21 -4 -36 15 -19 25 -77 34 -90 14 -3
-5 -17 -10 -31 -10 -15 0 -24 -6 -24 -16 0 -11 -6 -15 -20 -11 -13 3 -20 0
-20 -9 0 -9 -11 -14 -27 -14 -58 0 -183 -36 -245 -70 -10 -6 -21 -10 -24 -10
-10 0 5 107 27 195 53 207 70 275 84 335 28 129 54 379 61 603 3 125 8 227 10
227 2 0 28 -11 57 -26 28 -14 79 -31 112 -39 33 -8 61 -19 63 -25 2 -5 9 -10
17 -10 7 0 15 -19 19 -50 4 -27 11 -52 16 -55 18 -11 10 -39 -17 -60 -29 -24
-24 -45 11 -45 23 0 23 -2 13 -47 -10 -46 -12 -83 -16 -215 -1 -42 -6 -63 -20
-77 -19 -19 -19 -20 16 -44 29 -21 39 -23 54 -14 24 15 26 79 3 102 -18 18
-12 59 13 87 8 10 13 24 10 33 -4 9 -1 15 7 15 8 0 16 17 19 45 8 53 2 72 -24
80 -31 10 -22 24 19 27 l37 3 10 73 c9 65 13 76 36 88 15 7 29 20 32 27 6 17
95 42 202 56 347 47 369 51 772 156 57 15 110 25 118 21 12 -4 15 -29 15 -134
0 -367 44 -807 96 -967 30 -92 38 -105 69 -105 53 0 251 -76 348 -133 97 -57
200 -185 232 -287 32 -102 37 -121 45 -178 7 -50 52 -142 69 -142 3 0 49 -7
101 -15 52 -8 107 -15 123 -15 l27 0 0 2055 0 2055 -4795 0 -4795 0 0 -3309z
m4614 1842 c3 -16 15 -100 26 -188 11 -88 32 -225 45 -305 14 -80 30 -176 36
-215 28 -179 71 -401 79 -409 6 -6 42 -4 92 2 112 16 129 15 192 -8 64 -24
103 -62 154 -150 70 -121 85 -166 90 -276 5 -114 -4 -141 -86 -247 -44 -58
-45 -59 -81 -51 -20 5 -55 8 -78 8 -24 0 -43 4 -43 8 0 5 23 43 50 86 60 91
67 115 51 156 -29 71 -28 76 23 76 44 0 46 1 46 30 0 37 -31 55 -119 69 -34 6
-73 19 -88 30 -14 12 -32 21 -39 21 -20 0 -28 21 -13 31 25 15 177 11 211 -7
40 -21 58 -6 35 30 -20 30 -109 65 -186 72 -79 7 -177 -7 -174 -26 1 -8 7 -44
14 -78 l13 -64 -40 -36 c-70 -66 -92 -102 -106 -181 -14 -73 -15 -75 -57 -99
-58 -32 -162 -41 -230 -18 -27 9 -58 16 -68 16 -10 0 -45 14 -78 30 -33 17
-65 30 -71 30 -6 0 -14 9 -17 20 -3 11 -12 20 -19 20 -17 0 -42 47 -39 73 2
12 -5 17 -22 17 -18 0 -29 9 -41 34 -9 19 -23 36 -31 40 -8 3 -14 9 -13 13 3
15 -25 62 -33 57 -5 -3 -10 7 -11 23 -2 44 -5 57 -13 77 -6 13 -4 21 4 24 9 3
6 12 -10 28 -25 27 -38 92 -43 219 -2 46 -8 81 -15 83 -6 2 -11 12 -11 22 0
10 -11 25 -25 34 -14 9 -25 23 -25 32 0 8 -7 23 -16 32 -16 16 -16 38 2 165 6
44 5 49 -15 54 -29 7 -26 26 10 68 26 29 30 40 23 63 -4 15 -8 68 -8 117 -1
82 1 92 23 118 13 15 30 27 36 27 7 0 32 11 56 24 24 14 73 36 109 50 88 34
351 116 376 117 10 0 42 9 69 19 73 27 92 25 99 -7z m-1490 -349 c4 -10 13
-13 25 -9 20 6 47 -18 37 -34 -4 -5 -2 -12 4 -16 5 -3 10 -17 10 -31 0 -14 4
-23 8 -20 5 3 15 -6 22 -19 7 -14 17 -25 22 -25 4 0 8 -12 8 -27 0 -19 3 -24
8 -15 5 7 9 -7 10 -37 0 -28 -3 -53 -9 -56 -13 -9 -11 -35 4 -35 6 0 23 -17
36 -38 13 -20 32 -49 43 -64 24 -36 23 -41 -14 -57 -43 -18 -75 -48 -82 -76
-3 -12 -14 -25 -25 -28 -11 -2 -29 -24 -41 -47 -12 -23 -23 -40 -26 -38 -2 3
-6 83 -9 179 -7 229 -17 304 -61 444 -8 28 -9 44 -2 53 14 16 25 15 32 -4z
m104 -75 l-5 -24 -10 25 c-12 28 -6 47 9 32 5 -5 8 -20 6 -33z m140 -557 c2
-13 -1 -29 -7 -36 -7 -9 -7 -16 1 -24 6 -6 10 -36 8 -69 -1 -32 -2 -66 -2 -75
1 -10 -3 -18 -8 -18 -4 0 -6 -9 -3 -20 4 -15 0 -20 -16 -20 -11 0 -21 -5 -21
-11 0 -7 -7 -8 -17 -4 -10 4 -31 8 -47 8 l-29 1 6 79 c3 44 10 84 16 90 6 6
11 19 11 30 0 10 14 36 32 58 36 45 71 50 76 11z m2049 -609 c36 -73 38 -82
38 -175 l0 -98 -57 -56 c-55 -56 -57 -57 -88 -44 -42 17 -72 57 -64 84 4 12
21 37 39 58 59 64 78 121 78 221 -1 48 3 87 8 87 4 0 25 -35 46 -77z m130
-230 c48 -76 52 -121 19 -204 -29 -73 -32 -91 -13 -88 23 4 127 -13 133 -22 3
-5 10 -7 15 -4 5 4 76 -1 157 -9 81 -9 172 -19 202 -22 30 -3 80 -9 110 -14
30 -5 118 -16 195 -25 214 -25 210 -23 151 -91 -41 -49 -62 -89 -71 -137 -4
-20 -12 -40 -17 -43 -5 -3 -13 -17 -18 -29 -8 -20 -14 -23 -43 -18 -28 4 -37
1 -55 -22 -25 -32 -20 -82 10 -103 17 -12 17 -16 5 -35 -8 -12 -22 -46 -31
-74 -10 -29 -21 -55 -26 -58 -5 -3 -23 -34 -40 -70 -23 -47 -37 -65 -51 -65
-11 0 -33 -14 -49 -30 -31 -32 -39 -74 -20 -110 7 -14 5 -33 -9 -72 -27 -74
-33 -110 -23 -138 5 -15 5 -37 -1 -57 -8 -26 -16 -33 -36 -33 -15 0 -37 -7
-50 -16 -21 -15 -21 -18 -7 -26 9 -5 16 -14 16 -21 0 -7 13 -19 29 -28 28 -16
29 -16 56 17 29 34 45 43 45 23 0 -12 -82 -149 -117 -195 -27 -37 -29 -50 -7
-62 22 -12 8 -35 -14 -23 -21 10 -36 5 -89 -31 -26 -17 -43 -37 -43 -48 0 -23
-4 -24 -29 -10 -28 14 -91 -9 -102 -38 -8 -20 -12 -22 -24 -12 -14 12 -14 15
0 30 25 28 19 59 -15 74 -17 7 -27 15 -23 19 11 12 40 8 53 -8 21 -25 42 -17
97 37 53 52 63 68 42 68 -6 0 -24 14 -39 30 -15 17 -37 30 -47 30 -22 0 -98
-75 -108 -107 -3 -13 -10 -23 -15 -23 -18 0 -60 -56 -66 -87 -5 -25 0 -39 21
-67 15 -20 35 -36 45 -36 10 0 23 -7 30 -15 7 -8 18 -15 25 -15 7 0 18 -6 24
-14 8 -10 2 -32 -29 -95 -22 -45 -40 -85 -40 -88 0 -4 -10 -17 -22 -30 -22
-24 -52 -30 -63 -13 -4 6 -25 20 -47 31 -37 19 -45 20 -86 8 -43 -12 -46 -11
-60 9 -8 12 -24 22 -36 22 -28 0 -37 8 -60 49 -18 33 -18 35 -1 47 15 11 16
16 5 29 -7 8 -21 15 -31 15 -13 0 -19 7 -19 21 0 12 -13 34 -29 49 -16 16 -30
33 -33 40 -3 10 -27 10 -118 0 -156 -16 -144 -16 -248 -7 -52 5 -90 13 -87 18
9 14 -29 11 -44 -3 -10 -11 -11 -7 -7 19 12 67 21 77 94 105 73 29 204 54 222
43 14 -9 50 13 50 30 0 23 33 50 57 47 28 -4 66 16 57 30 -4 6 -27 8 -56 6
-27 -3 -51 -2 -53 2 -3 4 23 11 57 14 34 4 69 11 78 15 8 5 60 11 115 14 58 3
116 12 138 21 35 15 37 19 37 60 l0 43 -61 7 c-34 3 -97 6 -140 6 -67 0 -80 3
-89 19 -11 22 -13 110 -2 127 4 7 47 14 99 17 85 5 96 9 159 47 48 29 76 40
98 38 30 -3 31 -2 28 37 -5 53 -22 78 -74 107 -34 18 -44 30 -46 53 -2 17 -8
35 -14 42 -13 16 -1 34 17 26 32 -12 45 16 45 98 0 51 4 81 13 86 6 4 63 7
125 5 73 -2 112 1 112 8 0 5 -8 11 -17 12 -10 0 -31 2 -48 4 -16 1 -64 6 -105
9 -41 4 -80 11 -86 16 -7 5 -12 51 -13 113 l-1 103 75 -5 c47 -3 80 0 88 6 10
9 23 6 53 -8 34 -17 47 -19 90 -10 27 6 69 13 93 16 24 3 53 10 63 15 13 7 23
7 31 0 12 -9 134 0 177 14 8 2 56 -1 105 -9 97 -14 118 -12 113 12 -4 19 -53
34 -90 28 -16 -3 -28 -1 -28 4 0 9 -25 10 -162 11 -15 0 -40 6 -55 14 -15 8
-55 15 -88 15 -34 0 -65 4 -71 10 -12 12 -184 17 -202 6 -8 -5 -20 -2 -30 6
-9 8 -28 15 -42 16 -13 1 -34 6 -45 12 -25 13 -48 61 -40 82 4 10 -13 34 -50
69 -82 77 -83 81 -35 132 46 50 70 110 70 173 0 24 5 44 10 44 6 0 27 -26 47
-57z m-3152 -233 c3 -6 -1 -7 -9 -4 -18 7 -21 14 -7 14 6 0 13 -4 16 -10z
m5020 -19 c3 -5 2 -12 -3 -15 -12 -7 -52 4 -52 15 0 12 47 12 55 0z m-4355
-36 c0 -8 -2 -15 -4 -15 -2 0 -6 7 -10 15 -3 8 -1 15 4 15 6 0 10 -7 10 -15z
m-1246 -80 c-7 -17 -39 -20 -49 -6 -3 6 5 20 17 33 21 21 24 21 30 5 4 -9 5
-24 2 -32z m5706 1 c0 -11 -19 -15 -25 -6 -3 5 1 10 9 10 9 0 16 -2 16 -4z
m-231 -52 c3 -16 1 -17 -13 -5 -19 16 -21 34 -3 29 6 -3 14 -13 16 -24z
m-6655 7 c16 -25 -90 -61 -113 -38 -20 20 -11 30 23 24 22 -3 41 0 53 8 21 17
30 18 37 6z m123 -11 c4 -16 14 -20 43 -20 21 0 45 6 53 14 17 18 95 23 122 9
11 -6 34 -8 51 -6 18 3 35 0 39 -6 4 -8 15 -5 33 8 32 22 115 20 139 -4 18
-19 43 -19 43 -1 0 22 42 27 117 15 37 -6 88 -12 112 -14 24 -2 49 -9 55 -15
14 -14 53 -13 60 3 3 8 8 7 16 -6 9 -13 15 -15 31 -7 22 13 26 -2 4 -20 -8 -7
-15 -25 -15 -40 0 -29 32 -66 49 -56 15 9 243 68 266 69 11 0 23 5 26 10 3 5
33 3 68 -4 47 -10 68 -10 94 -1 33 12 77 7 77 -9 0 -5 7 -9 15 -9 18 0 20 36
3 43 -7 2 -11 7 -8 10 3 4 19 0 35 -9 16 -8 36 -14 44 -13 53 5 80 -2 86 -22
4 -12 12 -18 21 -15 24 9 5 -46 -26 -76 -16 -14 -50 -52 -76 -85 -73 -89 -212
-205 -300 -250 -37 -19 -44 -19 -80 -7 -21 8 -53 14 -71 14 -17 0 -34 4 -38 9
-3 5 -31 8 -62 6 -42 -2 -67 2 -95 16 -39 20 -108 26 -108 9 0 -5 -7 -10 -15
-10 -8 0 -15 7 -15 15 0 15 -16 21 -89 29 -24 2 -47 10 -51 16 -5 8 -21 10
-48 5 -22 -3 -48 -2 -58 3 -37 19 -91 32 -132 32 -22 0 -43 4 -46 9 -3 4 -35
11 -71 14 -36 4 -80 13 -98 20 -17 8 -48 15 -67 16 -19 1 -42 9 -52 17 -10 10
-42 18 -79 20 -39 3 -70 11 -85 23 -15 12 -42 19 -76 20 -28 0 -56 5 -62 11
-5 5 -22 10 -37 10 -15 0 -31 5 -34 10 -3 6 -19 10 -36 10 -29 0 -41 22 -19
35 17 10 11 25 -9 25 -14 0 -18 -5 -14 -18 2 -10 -2 -24 -11 -31 -12 -10 -19
-9 -38 3 -17 11 -34 13 -66 7 -50 -10 -63 2 -31 30 26 23 29 23 54 6 27 -18
70 -16 71 3 1 33 -25 48 -77 43 -41 -4 -49 -2 -49 12 0 14 6 16 29 12 16 -3
32 -3 35 0 9 10 105 4 147 -9 27 -8 42 -7 59 2 16 9 25 9 33 1 17 -17 45 -13
57 9 6 11 18 20 26 20 8 0 13 -4 10 -9 -6 -9 11 -5 67 15 9 4 17 14 17 23 0
35 29 43 37 11z m1599 -17 c-11 -11 -19 6 -11 24 8 17 8 17 12 0 3 -10 2 -21
-1 -24z m-1861 17 c3 -5 1 -10 -4 -10 -6 0 -11 5 -11 10 0 6 2 10 4 10 3 0 8
-4 11 -10z m5005 1 c0 -12 -20 -25 -27 -18 -7 7 6 27 18 27 5 0 9 -4 9 -9z
m-3765 -21 c3 -5 1 -10 -4 -10 -6 0 -11 5 -11 10 0 6 2 10 4 10 3 0 8 -4 11
-10z m5715 -4 c0 -17 -14 -29 -23 -20 -8 8 3 34 14 34 5 0 9 -6 9 -14z m-80
-32 c0 -17 -22 -14 -28 4 -2 7 3 12 12 12 9 0 16 -7 16 -16z m-4910 -9 c0 -8
-4 -15 -10 -15 -5 0 -7 7 -4 15 4 8 8 15 10 15 2 0 4 -7 4 -15z m3082 -24 c18
-2 -6 -29 -30 -34 -30 -6 -47 5 -39 25 4 12 23 14 69 9z m1750 -29 c7 2 13 -3
13 -11 0 -18 -46 -25 -57 -9 -15 25 -10 40 12 28 10 -6 25 -9 32 -8z m-4352
-19 c0 -13 -3 -13 -15 -3 -8 7 -15 16 -15 21 0 5 7 6 15 3 8 -4 15 -13 15 -21z
m4278 -8 c-3 -3 -13 -2 -22 1 -14 5 -15 9 -4 15 13 8 36 -6 26 -16z m542 -20
c19 -12 58 -43 87 -69 68 -62 73 -86 38 -207 -15 -52 -31 -116 -37 -144 -5
-27 -16 -57 -24 -66 -20 -22 -18 -34 9 -52 18 -12 20 -17 9 -29 -11 -11 -15
-10 -23 5 -6 9 -16 17 -23 17 -20 0 -29 31 -12 44 16 13 28 56 15 56 -5 0 -9
12 -9 28 0 15 -9 59 -21 97 -11 39 -23 81 -26 95 -2 14 -13 43 -22 65 -10 22
-24 62 -30 90 -7 27 -17 55 -22 61 -5 6 -7 18 -4 26 8 20 49 12 95 -17z
m-4853 -97 c-3 -8 -6 -5 -6 6 -1 11 2 17 5 13 3 -3 4 -12 1 -19z m4283 7 c0
-8 -4 -15 -10 -15 -5 0 -10 7 -10 15 0 8 5 15 10 15 6 0 10 -7 10 -15z m-4320
-5 c0 -5 -2 -10 -4 -10 -3 0 -8 5 -11 10 -3 6 -1 10 4 10 6 0 11 -4 11 -10z
m4270 -35 c7 -9 10 -19 6 -22 -8 -9 -38 9 -44 25 -5 17 23 15 38 -3z m60 0 c0
-8 -7 -15 -15 -15 -16 0 -20 12 -8 23 11 12 23 8 23 -8z m756 -91 c7 -38 -10
-114 -26 -114 -13 0 -12 16 0 62 7 26 8 44 1 57 -10 18 -6 31 10 31 5 0 11
-16 15 -36z m-5168 -4 c3 -21 2 -22 -12 -11 -19 16 -21 44 -3 39 6 -3 14 -15
15 -28z m4172 -35 c0 -8 -6 -15 -14 -15 -17 0 -28 14 -19 24 12 12 33 6 33 -9z
m180 -30 c0 -28 -4 -35 -20 -35 -12 0 -22 9 -26 24 -7 31 1 46 27 46 15 0 19
-7 19 -35z m-62 -17 c-6 -18 -28 -21 -28 -4 0 9 7 16 16 16 9 0 14 -5 12 -12z
m240 -34 c22 -11 32 -23 32 -39 0 -12 7 -25 15 -29 22 -8 18 -36 -4 -36 -11 0
-23 5 -27 11 -4 8 -9 8 -17 0 -20 -20 -25 -12 -20 29 5 33 3 40 -11 40 -16 0
-22 21 -9 33 8 9 5 10 41 -9z m-4614 -25 c-3 -5 -10 -7 -15 -3 -5 3 -7 10 -3
15 3 5 10 7 15 3 5 -3 7 -10 3 -15z m4348 -11 c-6 -6 -15 -9 -18 -5 -4 3 -4
14 0 23 5 13 9 15 18 6 9 -9 9 -15 0 -24z m158 22 c0 -5 -4 -10 -10 -10 -5 0
-10 5 -10 10 0 6 5 10 10 10 6 0 10 -4 10 -10z m-235 -21 c0 -8 -6 -13 -12
-11 -7 1 -13 -7 -13 -18 0 -11 -9 -29 -20 -40 -16 -16 -25 -18 -40 -10 -23 12
-26 30 -6 30 8 0 19 14 25 31 6 17 15 28 20 25 5 -4 13 -2 16 4 9 15 30 7 30
-11z m465 11 c0 -5 -4 -10 -10 -10 -5 0 -10 5 -10 10 0 6 5 10 10 10 6 0 10
-4 10 -10z m-322 -22 c-6 -18 -25 -20 -31 -3 -5 10 0 15 14 15 12 0 19 -5 17
-12z m312 -29 c0 -20 -15 -26 -25 -9 -9 15 3 43 15 35 5 -3 10 -15 10 -26z
m-422 -17 c2 -7 -3 -12 -12 -12 -9 0 -16 7 -16 16 0 17 22 14 28 -4z m2135
-33 c-6 -6 -7 3 -4 23 4 28 6 29 9 9 2 -13 0 -27 -5 -32z m-1622 28 c-1 -12
-15 -9 -19 4 -3 6 1 10 8 8 6 -3 11 -8 11 -12z m-876 -37 c-3 -5 -11 -10 -16
-10 -6 0 -7 5 -4 10 3 6 11 10 16 10 6 0 7 -4 4 -10z m305 0 c0 -5 -4 -10 -10
-10 -5 0 -10 5 -10 10 0 6 5 10 10 10 6 0 10 -4 10 -10z m678 -2 c17 -17 15
-48 -3 -48 -13 0 -35 36 -35 56 0 9 27 3 38 -8z m67 -8 c-3 -5 -10 -10 -16
-10 -5 0 -9 5 -9 10 0 6 7 10 16 10 8 0 12 -4 9 -10z m650 -14 c12 -5 15 -10
8 -14 -17 -11 -3 -64 18 -69 11 -3 19 -8 19 -12 0 -4 14 -15 30 -24 17 -10 30
-15 30 -11 0 4 9 -1 20 -11 22 -20 27 -46 8 -42 -12 2 -13 -46 -2 -85 3 -9 0
-19 -6 -23 -13 -8 -13 -55 0 -55 21 0 42 62 38 116 -2 41 0 51 8 40 6 -8 9
-37 8 -63 -4 -59 5 -115 17 -107 18 11 8 -38 -16 -75 -13 -22 -27 -51 -31 -65
-3 -14 -10 -26 -15 -26 -5 0 -9 -10 -9 -22 0 -21 -20 -87 -66 -221 -13 -38
-24 -90 -24 -118 0 -50 -15 -65 -28 -29 -5 13 -12 16 -20 11 -11 -6 -9 -15 7
-42 42 -69 41 -79 -6 -52 -29 16 -32 16 -86 -8 -54 -23 -72 -39 -44 -39 7 0
22 -8 33 -19 32 -30 97 -57 102 -43 2 7 11 12 20 12 25 0 46 38 32 55 -20 25
-1 36 23 14 22 -20 22 -21 3 -35 -11 -7 -17 -17 -13 -20 4 -4 13 -1 22 6 12
10 18 10 30 0 17 -14 21 -70 5 -70 -5 0 -10 -13 -10 -30 0 -16 -4 -30 -10 -30
-15 0 -12 -33 5 -56 17 -22 21 -54 5 -38 -21 21 -48 84 -38 90 5 3 7 13 4 21
-3 8 1 21 9 29 8 9 15 22 15 30 0 27 -15 14 -34 -30 l-19 -43 -74 49 c-40 27
-88 55 -106 63 -39 16 -103 84 -122 129 -8 18 -17 56 -21 84 -8 60 -8 60 76
37 30 -8 69 -15 85 -15 17 0 43 -7 59 -15 36 -19 46 -12 46 33 0 34 1 35 16
16 15 -19 15 -18 11 4 -3 12 -1 22 4 22 5 0 9 10 9 23 0 12 8 36 19 52 10 17
21 52 25 78 4 26 11 47 16 47 5 0 12 16 16 35 3 19 11 38 16 41 6 4 5 10 -3
15 -11 7 -11 11 -2 17 33 21 51 122 22 122 -15 0 -39 -66 -46 -124 -4 -28 -8
-45 -11 -38 -6 19 -22 14 -22 -8 0 -37 -61 -211 -76 -217 -9 -3 -27 0 -41 6
-33 15 -53 0 -36 -28 16 -25 2 -41 -33 -39 -44 3 -52 13 -47 62 5 43 5 44 -31
56 -20 6 -38 15 -41 20 -7 11 103 348 116 355 4 3 45 1 90 -5 129 -16 140 -7
131 101 -3 41 -7 47 -38 61 -32 15 -34 14 -40 -6 -4 -11 -17 -31 -31 -43 -13
-12 -22 -27 -21 -34 2 -6 -2 -13 -9 -16 -19 -7 -26 54 -9 87 13 28 13 32 -1
37 -11 5 -14 15 -9 44 6 39 37 109 46 104 3 -1 14 -5 25 -9z m-5745 -22 c0 -8
-4 -14 -9 -14 -11 0 -22 26 -14 34 9 9 23 -3 23 -20z m4229 1 c2 -11 9 -24 17
-28 29 -17 11 -53 -21 -41 -12 5 -15 14 -10 31 4 19 1 26 -15 30 -11 3 -20 12
-20 20 0 22 44 12 49 -12z m548 -21 c-12 -12 -37 5 -30 21 5 15 7 15 21 1 9
-9 13 -18 9 -22z m213 21 c0 -8 -7 -15 -15 -15 -16 0 -20 12 -8 23 11 12 23 8
23 -8z m-976 -10 c3 -8 1 -15 -4 -15 -6 0 -10 7 -10 15 0 8 2 15 4 15 2 0 6
-7 10 -15z m1158 -32 c2 -10 0 -38 -4 -63 -5 -25 -6 -57 -2 -72 8 -40 -17 -36
-50 6 -30 40 -33 51 -10 42 8 -3 24 3 35 13 17 15 19 23 10 39 -6 12 -11 28
-11 36 0 22 28 20 32 -1z m240 -5 c17 -26 13 -48 -8 -48 -8 0 -26 -11 -40 -25
-44 -44 -62 -7 -19 39 14 15 25 34 25 42 0 22 26 17 42 -8z m-1222 -13 c0 -8
-7 -15 -15 -15 -16 0 -20 12 -8 23 11 12 23 8 23 -8z m200 5 c0 -5 -4 -10 -10
-10 -5 0 -10 5 -10 10 0 6 5 10 10 10 6 0 10 -4 10 -10z m2127 -22 c-3 -7 -5
-2 -5 12 0 14 2 19 5 13 2 -7 2 -19 0 -25z m-2167 -3 c0 -8 -4 -15 -10 -15 -5
0 -10 7 -10 15 0 8 5 15 10 15 6 0 10 -7 10 -15z m-1599 -25 c-18 -17 -37 -30
-42 -30 -4 0 -14 -6 -21 -13 -7 -7 -32 -21 -55 -30 -62 -24 -56 0 9 38 28 17
63 38 77 47 14 9 35 17 46 17 17 1 14 -4 -14 -29z m2219 -18 c0 -5 -7 -15 -15
-22 -8 -7 -15 -21 -15 -32 0 -10 -4 -17 -9 -14 -12 8 -20 55 -10 62 5 3 9 17
9 31 l0 27 20 -22 c11 -12 20 -25 20 -30z m608 22 c34 -16 40 -29 19 -37 -14
-5 -57 26 -57 42 0 14 1 14 38 -5z m-34 -26 c21 -29 21 -74 0 -82 -18 -7 -37
1 -29 13 2 5 0 23 -5 41 -15 52 6 68 34 28z m-5609 2 c-3 -5 -11 -10 -16 -10
-6 0 -7 5 -4 10 3 6 11 10 16 10 6 0 7 -4 4 -10z m4135 -5 c6 -8 9 -23 5 -35
-5 -14 -2 -20 9 -20 9 0 16 -4 16 -10 0 -14 -37 -31 -54 -24 -19 7 -20 16 -5
31 7 7 8 17 1 29 -18 35 4 58 28 29z m-223 -17 c-3 -8 -6 -5 -6 6 -1 11 2 17
5 13 3 -3 4 -12 1 -19z m977 -10 c29 -57 13 -80 -25 -35 -22 26 -23 39 -7 55
16 16 14 17 32 -20z m-436 -23 c1 -11 -2 -27 -8 -35 -12 -19 -26 -5 -36 33 -6
26 -4 28 17 25 15 -2 25 -11 27 -23z m890 6 c3 -8 -1 -12 -9 -9 -7 2 -15 10
-17 17 -3 8 1 12 9 9 7 -2 15 -10 17 -17z m66 -20 c3 -5 -1 -26 -10 -46 -14
-35 -16 -36 -33 -21 -10 9 -23 16 -29 16 -18 0 -15 9 11 36 22 24 51 31 61 15z
m636 -16 c10 -12 10 -21 2 -38 l-11 -22 0 24 c-1 16 -5 21 -16 17 -17 -6 -18
-4 -9 18 8 20 18 20 34 1z m-1820 -11 c0 -8 -5 -12 -10 -9 -6 4 -8 11 -5 16 9
14 15 11 15 -7z m978 -2 c2 -7 -3 -12 -12 -12 -9 0 -16 7 -16 16 0 17 22 14
28 -4z m607 -12 c-5 -8 -11 -8 -17 -2 -6 6 -7 16 -3 22 5 8 11 8 17 2 6 -6 7
-16 3 -22z m-1418 -2 c-3 -8 -6 -5 -6 6 -1 11 2 17 5 13 3 -3 4 -12 1 -19z
m-507 -13 c0 -8 -7 -15 -15 -15 -26 0 -18 20 13 29 1 1 2 -6 2 -14z m2193 -48
c-10 -18 -19 5 -14 35 l5 33 6 -30 c4 -16 5 -33 3 -38z m-585 31 c19 -19 14
-29 -8 -16 -20 13 -27 28 -12 28 4 0 13 -5 20 -12z m-1483 -17 c3 -5 1 -13 -5
-16 -15 -9 -71 5 -64 16 7 12 61 12 69 0z m892 -7 c5 -15 7 -15 15 0 5 9 20
16 34 16 20 0 24 -4 19 -19 -3 -11 -1 -22 5 -26 12 -8 13 -35 1 -54 -8 -12
-12 -12 -24 -2 -13 10 -16 8 -22 -8 -8 -28 -25 -26 -53 4 -19 20 -22 31 -17
57 4 18 9 36 12 41 7 12 23 8 30 -9z m-461 -36 c4 -6 -2 -17 -12 -25 -10 -8
-18 -23 -16 -33 2 -13 -2 -20 -12 -20 -12 0 -13 5 -7 22 5 14 4 29 -2 39 -6 9
-7 24 -4 33 5 13 11 15 26 6 11 -5 23 -15 27 -22z m-646 -2 c0 -8 -4 -17 -9
-21 -12 -7 -24 12 -16 25 9 15 25 12 25 -4z m240 -10 c0 -3 -4 -8 -10 -11 -5
-3 -10 -1 -10 4 0 6 5 11 10 11 6 0 10 -2 10 -4z m-346 -21 c-4 -8 -10 -12
-15 -9 -14 8 -10 24 6 24 9 0 12 -6 9 -15z m1426 -36 c0 -5 -7 -9 -15 -9 -9 0
-15 9 -15 21 0 18 2 19 15 9 8 -7 15 -16 15 -21z m55 -26 c4 -35 1 -42 -18
-47 -12 -3 -28 -6 -34 -6 -18 0 -16 37 2 44 8 3 15 16 15 29 0 57 29 40 35
-20z m772 29 c0 -10 -7 -24 -14 -31 -14 -13 -16 -7 -7 27 8 26 23 30 21 4z
m-1573 -17 c-6 -16 -24 -21 -24 -7 0 11 11 22 21 22 5 0 6 -7 3 -15z m-717
-25 c-13 -34 -23 -37 -49 -13 -26 23 -23 31 15 36 17 2 35 5 39 5 3 1 1 -11
-5 -28z m1353 -31 c0 -5 -4 -9 -10 -9 -5 0 -10 7 -10 16 0 8 5 12 10 9 6 -3
10 -10 10 -16z m95 -19 c8 0 15 -7 15 -15 0 -21 -26 -19 -34 3 -3 9 -9 24 -12
32 -3 8 0 7 6 -2 6 -10 18 -18 25 -18z m-174 -35 c18 -36 20 -48 10 -58 -10
-9 -17 -6 -35 16 -12 15 -27 27 -34 27 -16 0 -16 32 0 48 21 21 36 13 59 -33z
m380 8 c1 -21 0 -46 -1 -56 -1 -11 7 -21 20 -24 11 -3 19 -11 17 -17 -3 -6
-11 -9 -18 -7 -25 6 -44 9 -58 10 -10 1 -12 11 -8 39 4 20 2 43 -2 51 -14 22
-2 41 25 41 21 0 24 -5 25 -37z m-920 17 c25 -14 24 -42 -1 -65 -21 -19 -22
-18 -34 36 -8 38 2 46 35 29z m-871 -15 c0 -8 -4 -15 -10 -15 -5 0 -10 7 -10
15 0 8 5 15 10 15 6 0 10 -7 10 -15z m-1614 -46 c3 -6 7 -30 9 -54 1 -23 10
-56 18 -71 29 -53 57 -126 57 -150 0 -15 -8 -25 -22 -30 -13 -3 -31 -15 -41
-25 -21 -23 -52 -26 -44 -4 4 8 2 17 -3 20 -6 4 -10 -2 -10 -13 0 -21 3 -20
-102 -24 -42 -2 -80 -6 -84 -10 -11 -11 -24 1 -24 23 0 26 -30 37 -45 16 -6
-9 -24 -21 -38 -26 -19 -8 -25 -15 -20 -27 4 -11 2 -15 -4 -11 -14 9 -66 -10
-59 -21 2 -4 1 -14 -4 -21 -6 -11 -15 -10 -42 7 -21 13 -42 19 -56 15 -16 -4
-27 0 -36 12 -8 11 -20 16 -30 12 -10 -4 -16 -1 -16 8 0 8 -7 15 -15 15 -10 0
-15 10 -15 34 0 19 -6 41 -13 48 -27 27 -38 55 -24 65 24 19 121 63 138 63 10
0 20 4 23 9 7 11 114 49 200 71 39 10 96 26 126 35 169 51 166 50 176 34z
m1834 -15 c0 -14 -3 -14 -15 -4 -8 7 -15 14 -15 16 0 2 7 4 15 4 8 0 15 -7 15
-16z m1474 0 c4 -9 4 -19 1 -22 -7 -8 -35 19 -29 29 8 14 21 11 28 -7z m1283
-31 c-3 -10 -5 -4 -5 12 0 17 2 24 5 18 2 -7 2 -21 0 -30z m-1086 7 c24 -14
26 -42 2 -33 -27 9 -43 24 -37 34 7 11 11 11 35 -1z m83 -62 c20 -28 20 -44 2
-51 -18 -7 -50 39 -42 59 8 20 23 17 40 -8z m-1110 -11 c9 -14 7 -21 -5 -30
-8 -7 -18 -20 -22 -30 -10 -26 -28 -10 -21 18 3 12 1 26 -5 29 -6 4 -11 14
-11 22 0 21 50 14 64 -9z m996 9 c0 -8 -7 -16 -15 -20 -17 -6 -18 -4 -9 18 8
20 24 21 24 2z m-456 -5 c3 -5 -1 -11 -9 -15 -9 -3 -15 0 -15 9 0 16 16 20 24
6z m-1304 -16 c0 -8 -4 -15 -10 -15 -5 0 -7 7 -4 15 4 8 8 15 10 15 2 0 4 -7
4 -15z m1348 -39 c4 -35 -9 -50 -37 -41 -25 8 -26 18 -5 51 21 31 38 26 42
-10z m32 24 c0 -5 -2 -10 -4 -10 -3 0 -8 5 -11 10 -3 6 -1 10 4 10 6 0 11 -4
11 -10z m555 -10 c0 -22 -29 -18 -33 3 -3 14 1 18 15 15 10 -2 18 -10 18 -18z
m-1245 -44 c0 -3 -4 -8 -10 -11 -5 -3 -10 -1 -10 4 0 6 5 11 10 11 6 0 10 -2
10 -4z m-1080 -56 c0 -5 -2 -10 -4 -10 -3 0 -8 5 -11 10 -3 6 -1 10 4 10 6 0
11 -4 11 -10z m1134 -43 c12 -19 -8 -47 -34 -47 -18 0 -36 43 -25 60 9 14 47
6 59 -13z m611 -77 c30 -16 40 -40 19 -47 -18 -6 -64 37 -64 60 0 12 4 18 8
12 4 -5 21 -17 37 -25z m-5103 -14 c37 -8 71 -17 77 -21 27 -16 -1 -56 -49
-70 -14 -4 -32 -14 -40 -21 -26 -25 -119 -94 -149 -112 -16 -9 -44 -29 -63
-45 -43 -33 -69 -28 -65 13 2 16 9 35 15 42 6 8 9 23 6 35 -4 13 0 22 10 26 9
4 16 17 16 31 0 14 10 30 25 40 14 9 25 23 25 30 0 22 67 62 110 65 8 1 45 -5
82 -13z m3453 4 c3 -5 -3 -10 -14 -10 -12 0 -21 5 -21 10 0 6 6 10 14 10 8 0
18 -4 21 -10z m2585 -46 c0 -8 -4 -12 -10 -9 -5 3 -10 13 -10 21 0 8 5 12 10
9 6 -3 10 -13 10 -21z m-1562 -6 c7 -7 12 -25 12 -41 0 -22 -4 -28 -15 -23
-10 4 -15 -1 -15 -14 0 -12 -7 -20 -16 -20 -12 0 -15 6 -11 23 3 12 -1 31 -8
41 -25 34 23 64 53 34z m2002 -103 c0 -8 -4 -15 -10 -15 -5 0 -10 7 -10 15 0
8 5 15 10 15 6 0 10 -7 10 -15z m-1317 -79 c-1 -26 -4 -51 -7 -54 -4 -3 -19 9
-36 28 l-29 33 22 23 c35 38 52 27 50 -30z m1346 -60 c-5 -6 -9 7 -8 35 l1 44
8 -35 c5 -20 5 -39 -1 -44z m-424 55 c3 -5 1 -12 -5 -16 -5 -3 -10 1 -10 9 0
18 6 21 15 7z m-1618 -17 c7 -20 -10 -50 -27 -46 -7 2 -9 -5 -5 -19 7 -20 -14
-107 -61 -259 -13 -41 -26 -94 -30 -118 -4 -23 -11 -45 -15 -48 -5 -3 -9 -13
-9 -23 0 -24 -46 -127 -60 -136 -19 -12 -20 -1 -6 81 8 48 10 86 5 96 -7 12
-2 22 16 36 28 22 55 88 55 133 0 15 5 31 10 34 6 3 7 17 4 30 -4 18 1 33 20
55 37 44 49 96 31 131 -27 51 -18 65 43 68 13 0 25 -6 29 -15z m2313 -29 c0
-1 -7 -8 -15 -15 -13 -10 -15 -9 -15 8 0 15 5 20 15 16 8 -4 15 -7 15 -9z
m-6113 -117 c11 -26 -4 -78 -23 -78 -7 0 -15 -12 -18 -26 -5 -19 -12 -25 -26
-21 -14 3 -22 -3 -29 -22 -16 -43 -86 -135 -107 -141 -10 -3 -19 -11 -19 -19
0 -8 -5 -16 -11 -18 -8 -3 -10 37 -9 128 l2 132 29 24 c16 13 46 26 66 29 21
4 46 13 55 20 29 22 78 18 90 -8z m5720 -55 c-2 -16 -4 -5 -4 22 0 28 2 40 4
28 2 -13 2 -35 0 -50z m78 27 c3 -5 1 -10 -4 -10 -6 0 -11 5 -11 10 0 6 2 10
4 10 3 0 8 -4 11 -10z m-38 -90 c-13 -22 -27 -26 -27 -10 0 6 6 13 14 16 8 3
12 16 9 32 -3 26 -3 26 7 4 7 -16 6 -29 -3 -42z m-47 -25 c-7 -9 -15 -13 -17
-11 -7 7 7 26 19 26 6 0 6 -6 -2 -15z m-7083 -481 c-3 -3 -12 -4 -19 -1 -8 3
-5 6 6 6 11 1 17 -2 13 -5z m-364 -631 c-7 -2 -19 -2 -25 0 -7 3 -2 5 12 5 14
0 19 -2 13 -5z m222 -3 c-3 -5 -10 -10 -16 -10 -5 0 -9 5 -9 10 0 6 7 10 16
10 8 0 12 -4 9 -10z m-128 -6 c-3 -3 -12 -4 -19 -1 -8 3 -5 6 6 6 11 1 17 -2
13 -5z m340 -19 c8 -22 -2 -28 -24 -17 -10 5 -27 6 -38 2 -22 -8 -55 -2 -55
10 0 10 30 17 78 19 21 1 35 -4 39 -14z m73 1 c0 -9 -30 -14 -35 -6 -4 6 3 10
14 10 12 0 21 -2 21 -4z m-1120 -86 c0 -5 -2 -10 -4 -10 -3 0 -8 5 -11 10 -3
6 -1 10 4 10 6 0 11 -4 11 -10z m6900 -201 c103 -24 175 -52 214 -83 25 -20
12 -34 -16 -17 -28 18 -46 0 -30 -31 13 -28 10 -70 -6 -76 -7 -2 -12 -12 -12
-22 0 -9 -7 -23 -15 -30 -8 -7 -15 -18 -15 -24 0 -6 -9 -17 -20 -24 -11 -7
-20 -21 -20 -32 0 -11 -4 -20 -10 -20 -5 0 -29 -20 -53 -44 -38 -38 -43 -48
-39 -77 4 -29 3 -32 -10 -22 -13 11 -17 7 -28 -26 -9 -27 -22 -43 -46 -54 -19
-9 -36 -26 -39 -39 -6 -23 -60 -63 -80 -60 -6 1 -19 -12 -30 -29 -26 -40 -75
-69 -115 -69 -30 0 -32 2 -24 28 4 15 8 41 9 57 1 17 6 41 12 55 8 20 7 29 -4
42 -14 16 -14 18 1 24 17 7 23 64 6 64 -15 0 -12 26 5 40 8 7 15 20 14 29 0
12 -2 11 -8 -4 -7 -17 -9 -16 -15 10 -6 22 -3 32 10 42 16 12 16 14 0 31 -12
15 -14 25 -7 43 5 13 10 17 11 9 1 -28 20 12 20 45 0 52 34 147 58 163 12 8
22 20 22 27 0 7 12 16 28 20 37 10 183 12 189 3 2 -5 21 -8 42 -8 20 0 42 -5
48 -11 6 -6 16 -8 22 -4 19 11 2 25 -30 25 -17 0 -43 7 -59 15 -32 17 -177 27
-186 14 -7 -12 -44 -12 -44 0 0 36 137 47 250 20z m-290 -59 c0 -5 -4 -10 -10
-10 -5 0 -10 5 -10 10 0 6 5 10 10 10 6 0 10 -4 10 -10z m560 -60 c0 -5 -2
-10 -4 -10 -3 0 -8 5 -11 10 -3 6 -1 10 4 10 6 0 11 -4 11 -10z m-7643 -606
c-3 -3 -12 -4 -19 -1 -8 3 -5 6 6 6 11 1 17 -2 13 -5z m-90 -10 c-3 -3 -12 -4
-19 -1 -8 3 -5 6 6 6 11 1 17 -2 13 -5z m-22 -114 c3 -5 1 -10 -4 -10 -6 0
-11 5 -11 10 0 6 2 10 4 10 3 0 8 -4 11 -10z m7145 -80 c0 -5 -9 -10 -21 -10
-11 0 -17 5 -14 10 3 6 13 10 21 10 8 0 14 -4 14 -10z m-6974 -45 c14 -30 -3
-60 -41 -69 -21 -5 -25 -12 -25 -41 0 -35 -20 -49 -35 -24 -4 6 -23 9 -43 7
-24 -2 -37 2 -40 12 -3 8 -12 20 -20 26 -18 13 -9 44 13 44 9 0 26 -5 38 -11
12 -6 4 5 -18 25 l-40 36 62 0 c40 0 63 -4 66 -12 3 -9 12 -6 28 10 30 28 41
28 55 -3z m6864 -21 c0 -12 -46 -43 -64 -44 -12 0 -16 -5 -13 -14 4 -10 -2
-16 -21 -18 -19 -2 -27 -9 -27 -23 0 -14 -8 -21 -25 -24 -14 -1 -37 -12 -51
-22 -15 -10 -30 -19 -34 -19 -4 0 -18 -9 -32 -20 -14 -11 -41 -20 -59 -20 -23
0 -34 -5 -34 -14 0 -8 -15 -19 -34 -26 -19 -6 -44 -20 -57 -31 -12 -10 -40
-22 -61 -25 -23 -4 -38 -12 -38 -20 0 -10 -7 -13 -26 -8 -16 4 -29 2 -34 -6
-6 -9 -12 -9 -29 -1 -17 10 -22 9 -27 -4 -3 -8 -15 -15 -25 -15 -11 0 -28 -6
-39 -12 -16 -10 -24 -10 -40 0 -11 6 -26 12 -34 12 -7 0 -19 7 -26 15 -7 8
-22 15 -34 14 -20 0 -20 -1 -1 -8 19 -8 19 -8 -3 -15 -27 -9 -52 8 -52 35 0
22 -30 25 -60 7 -15 -9 -23 -10 -28 -2 -4 6 -28 23 -53 37 -32 19 -48 24 -56
16 -8 -8 -13 -8 -17 0 -4 6 0 11 8 11 26 0 30 39 7 64 -25 26 -27 49 -6 66 11
9 19 8 37 -4 12 -9 30 -16 39 -16 9 0 44 -13 77 -30 34 -16 69 -30 79 -30 10
0 27 -6 38 -14 34 -23 265 -54 265 -35 0 5 14 9 31 9 17 0 37 7 45 15 9 8 28
15 44 15 27 0 42 4 115 35 17 7 44 18 60 25 17 7 38 16 47 21 10 5 27 9 38 9
11 0 23 6 26 14 3 8 17 17 32 21 15 4 21 10 15 12 -23 8 -14 19 35 41 70 31
102 39 102 26z m-6788 -19 c0 -5 -5 -11 -11 -13 -6 -2 -11 4 -11 13 0 9 5 15
11 13 6 -2 11 -8 11 -13z m68 1 c0 -3 -4 -8 -10 -11 -5 -3 -10 -1 -10 4 0 6 5
11 10 11 6 0 10 -2 10 -4z m395 -6 c-3 -5 -11 -10 -16 -10 -6 0 -7 5 -4 10 3
6 11 10 16 10 6 0 7 -4 4 -10z m60 -10 c3 -5 -1 -10 -9 -10 -8 0 -18 5 -21 10
-3 6 1 10 9 10 8 0 18 -4 21 -10z m-455 -14 c0 -3 -4 -8 -10 -11 -5 -3 -10 -1
-10 4 0 6 5 11 10 11 6 0 10 -2 10 -4z m-165 -56 c8 -13 -5 -13 -25 0 -13 8
-13 10 2 10 9 0 20 -4 23 -10z m85 -30 c11 6 20 14 20 18 0 4 29 6 63 4 62 -3
64 -4 59 -28 -5 -29 13 -32 57 -7 37 22 52 10 20 -16 -29 -24 -75 -36 -92 -24
-7 5 -32 11 -57 12 -25 2 -47 7 -48 12 -7 18 -30 -11 -25 -31 7 -26 -26 -40
-39 -17 -5 10 -15 17 -23 17 -7 0 -15 5 -17 12 -3 7 -13 5 -31 -7 -27 -17 -27
-17 -27 9 0 27 12 32 73 27 23 -2 27 1 28 26 0 27 1 27 9 5 8 -19 13 -21 30
-12z m2610 -21 c0 -5 -4 -9 -10 -9 -5 0 -10 7 -10 16 0 8 5 12 10 9 6 -3 10
-10 10 -16z m35 11 c3 -5 1 -10 -4 -10 -6 0 -11 5 -11 10 0 6 2 10 4 10 3 0 8
-4 11 -10z m730 -50 c-6 -9 -9 -9 -16 1 -10 17 0 34 13 21 6 -6 7 -16 3 -22z
m-3025 0 c0 -5 11 -10 23 -10 13 0 27 -3 31 -7 3 -4 36 -8 71 -9 49 -2 67 2
73 13 11 18 62 7 62 -14 0 -11 -7 -13 -31 -8 -30 7 -31 6 -24 -23 7 -34 -7
-49 -25 -27 -10 13 -14 13 -27 -1 -14 -14 -18 -13 -39 7 -14 13 -38 22 -61 24
-21 1 -48 7 -59 13 -13 7 -25 7 -37 1 -18 -11 -37 -4 -37 11 0 5 11 12 25 16
14 3 25 10 25 15 0 5 7 9 15 9 8 0 15 -4 15 -10z m2287 4 c-3 -3 -12 -4 -19
-1 -8 3 -5 6 6 6 11 1 17 -2 13 -5z m-2607 -14 c0 -5 -5 -10 -11 -10 -5 0 -7
5 -4 10 3 6 8 10 11 10 2 0 4 -4 4 -10z m3355 -20 c3 -5 12 -7 19 -4 9 4 16
-7 20 -31 6 -29 3 -40 -11 -51 -29 -22 -39 -17 -56 28 -12 31 -14 45 -6 55 13
15 26 17 34 3z m-2484 -16 c13 -5 33 -9 44 -9 16 0 20 -7 22 -34 1 -36 -21
-64 -44 -56 -6 2 -19 -2 -29 -10 -16 -11 -23 -11 -46 1 -38 20 -58 18 -58 -6
0 -13 -7 -20 -20 -20 -22 0 -27 25 -7 34 6 3 3 4 -9 1 -26 -6 -50 13 -58 47
-5 21 -3 25 12 22 9 -3 31 5 48 18 33 25 95 30 145 12z m-1191 -64 c0 -5 -4
-10 -9 -10 -6 0 -13 5 -16 10 -3 6 1 10 9 10 9 0 16 -4 16 -10z m55 0 c-3 -5
-12 -7 -20 -3 -21 7 -19 13 6 13 11 0 18 -4 14 -10z m913 -17 c-2 -10 -13 -19
-25 -21 -12 -2 -25 -12 -28 -23 -6 -17 -8 -18 -35 -4 -20 11 -27 20 -23 34 5
21 24 27 81 30 27 1 33 -2 30 -16z m-175 -850 c-7 -2 -21 -2 -30 0 -10 3 -4 5
12 5 17 0 24 -2 18 -5z"/>
<path d="M5675 5920 c-4 -6 -3 -16 3 -22 6 -6 12 -6 17 2 4 6 3 16 -3 22 -6 6
-12 6 -17 -2z"/>
<path d="M5966 5441 c-14 -5 -16 -10 -7 -15 18 -11 240 -16 246 -5 6 9 -1 10
-62 14 -16 1 -57 5 -93 8 -36 3 -74 3 -84 -2z"/>
<path d="M5891 4645 c-17 -19 -37 -35 -44 -35 -8 0 -22 -9 -31 -19 -16 -18
-16 -20 6 -35 22 -16 23 -15 26 4 2 11 8 20 14 20 6 0 8 -10 4 -25 -7 -29 15
-45 38 -26 7 6 20 9 28 6 10 -4 26 6 43 26 24 29 25 34 11 45 -9 6 -16 18 -16
27 0 56 -35 61 -79 12z"/>
<path d="M630 5760 c0 -5 7 -10 16 -10 8 0 12 5 9 10 -3 6 -10 10 -16 10 -5 0
-9 -4 -9 -10z"/>
<path d="M8350 4090 c0 -5 5 -10 10 -10 6 0 10 5 10 10 0 6 -4 10 -10 10 -5 0
-10 -4 -10 -10z"/>
<path d="M7440 4866 c0 -8 7 -16 15 -20 10 -4 15 1 15 14 0 11 -7 20 -15 20
-8 0 -15 -6 -15 -14z"/>
<path d="M7715 2210 c3 -5 15 -10 26 -10 11 0 17 5 14 10 -3 6 -15 10 -26 10
-11 0 -17 -4 -14 -10z"/>
<path d="M203 1245 c0 -14 3 -25 8 -25 5 0 9 11 9 25 0 14 -4 25 -9 25 -5 0
-8 -11 -8 -25z"/>
<path d="M7575 6344 c-11 -8 -27 -19 -35 -25 -12 -7 -13 -10 -2 -17 8 -5 12
-18 11 -28 -5 -35 10 -74 26 -67 10 3 13 12 10 24 -4 13 -1 19 9 19 9 0 16 -7
16 -15 0 -13 7 -11 40 7 22 13 40 30 40 38 -1 22 -57 80 -77 80 -10 0 -27 -8
-38 -16z"/>
<path d="M9227 5441 c-4 -17 -3 -21 5 -13 5 5 8 16 6 23 -3 8 -7 3 -11 -10z"/>
<path d="M9322 5320 c0 -14 2 -19 5 -12 2 6 2 18 0 25 -3 6 -5 1 -5 -13z"/>
<path d="M9575 4280 c-3 -5 -1 -10 4 -10 6 0 11 5 11 10 0 6 -2 10 -4 10 -3 0
-8 -4 -11 -10z"/>
<path d="M9351 4156 c13 -14 27 -22 32 -19 10 6 -27 43 -44 43 -6 0 -1 -11 12
-24z"/>
<path d="M9490 4014 c1 -32 38 -49 66 -31 7 4 15 -2 19 -16 l8 -22 4 24 c3 13
1 27 -4 32 -12 12 -93 23 -93 13z"/>
<path d="M9520 3884 c0 -8 5 -12 10 -9 6 4 8 11 5 16 -9 14 -15 11 -15 -7z"/>
<path d="M9480 3874 c0 -8 5 -12 10 -9 6 4 8 11 5 16 -9 14 -15 11 -15 -7z"/>
<path d="M9530 3823 c-40 -15 -32 -49 10 -47 49 2 50 3 50 29 0 19 -5 25 -22
24 -13 0 -30 -3 -38 -6z"/>
<path d="M9011 3740 c-24 -43 -14 -53 19 -20 20 20 28 60 12 60 -5 0 -18 -18
-31 -40z"/>
<path d="M8720 3460 c0 -5 5 -10 11 -10 5 0 7 5 4 10 -3 6 -8 10 -11 10 -2 0
-4 -4 -4 -10z"/>
<path d="M8657 3433 c-3 -4 -8 -29 -12 -54 -5 -36 -3 -49 10 -62 15 -15 19
-15 46 -2 16 9 29 21 29 28 0 7 11 25 25 40 19 20 22 27 11 27 -9 0 -23 -11
-32 -25 -16 -25 -34 -33 -34 -15 0 17 -38 72 -43 63z"/>
<path d="M8372 2690 c0 -14 2 -19 5 -12 2 6 2 18 0 25 -3 6 -5 1 -5 -13z"/>
<path d="M8330 2623 c-7 -15 -13 -31 -12 -35 1 -4 -9 -28 -23 -54 -30 -57 -32
-76 -5 -41 11 14 20 29 20 34 0 4 11 29 24 54 14 25 21 51 17 57 -5 9 -12 4
-21 -15z"/>
<path d="M928 2453 c6 -2 18 -2 25 0 6 3 1 5 -13 5 -14 0 -19 -2 -12 -5z"/>
<path d="M8247 2453 c-4 -3 -7 -11 -7 -17 0 -6 5 -5 12 2 6 6 9 14 7 17 -3 3
-9 2 -12 -2z"/>
<path d="M1765 2370 c-3 -6 1 -7 9 -4 18 7 21 14 7 14 -6 0 -13 -4 -16 -10z"/>
<path d="M1156 2311 c5 -4 23 -11 39 -15 l30 -6 -25 15 c-27 16 -60 21 -44 6z"/>
<path d="M1400 2250 c0 -5 5 -10 10 -10 6 0 10 5 10 10 0 6 -4 10 -10 10 -5 0
-10 -4 -10 -10z"/>
<path d="M320 1956 c0 -8 5 -18 10 -21 6 -3 10 3 10 14 0 12 -4 21 -10 21 -5
0 -10 -6 -10 -14z"/>
<path d="M1057 1895 c-4 -8 -2 -17 3 -20 6 -4 10 3 10 14 0 25 -6 27 -13 6z"/>
<path d="M9310 1823 c14 -2 34 -8 45 -13 44 -19 64 -22 148 -26 80 -3 88 -2
85 14 -2 12 -14 18 -38 19 -147 7 -261 10 -240 6z"/>
<path d="M467 1751 c-2 -3 0 -22 4 -41 l6 -35 2 33 c1 29 3 32 21 22 16 -8 20
-8 20 3 0 14 -48 30 -53 18z"/>
<path d="M7963 1753 c-7 -3 -13 -11 -13 -19 0 -8 -3 -13 -7 -12 -5 1 -24 -6
-43 -16 -25 -12 -42 -32 -60 -69 -23 -49 -80 -117 -80 -96 0 6 -8 6 -20 -1
-11 -6 -20 -18 -20 -26 0 -9 -9 -27 -20 -41 -11 -14 -20 -34 -20 -44 0 -21
-12 -30 -47 -34 -38 -4 -73 -55 -39 -55 30 0 27 -23 -8 -55 -20 -18 -36 -38
-36 -44 0 -7 -4 -9 -10 -6 -5 3 -10 0 -10 -8 0 -7 -10 -23 -22 -34 -13 -11
-41 -42 -63 -67 -22 -26 -50 -58 -62 -70 -29 -29 -29 -42 -2 -49 14 -4 29 2
45 18 14 14 31 22 39 18 18 -6 55 23 55 45 0 9 6 12 16 8 9 -3 18 -6 20 -6 6
0 5 -46 -2 -64 -3 -9 -13 -16 -21 -16 -17 0 -56 -38 -73 -70 -6 -11 -17 -20
-25 -20 -18 0 -58 -67 -51 -85 5 -13 9 -13 28 -3 13 7 27 19 31 26 4 6 13 12
20 12 13 1 77 81 77 97 0 5 17 22 38 38 21 15 53 49 72 74 19 25 47 59 62 76
59 64 198 248 198 261 0 4 7 15 16 25 11 12 16 38 17 81 0 37 2 47 4 26 4 -38
22 -53 24 -20 0 9 2 28 3 42 2 14 -1 36 -6 49 -5 14 -6 32 -2 40 5 14 7 13 14
-4 6 -14 9 -3 9 37 1 58 -4 69 -26 61z m14 -25 c-3 -8 -6 -5 -6 6 -1 11 2 17
5 13 3 -3 4 -12 1 -19z m-71 -215 c7 -10 13 -22 14 -28 0 -5 -4 -3 -10 5 -7
12 -12 12 -29 -4 -30 -27 -48 -9 -20 20 27 29 28 29 45 7z m-64 -95 c-23 -36
-30 -20 -12 28 8 20 14 24 22 16 8 -8 5 -20 -10 -44z m-202 -68 c0 -5 -5 -10
-11 -10 -5 0 -7 5 -4 10 3 6 8 10 11 10 2 0 4 -4 4 -10z m-9 -200 c7 11 8 6 3
-15 -8 -37 -5 -34 -42 -41 -28 -6 -32 -4 -32 16 0 16 4 20 15 16 11 -4 15 2
15 22 1 26 1 26 16 7 13 -17 16 -18 25 -5z"/>
<path d="M572 1709 c1 -13 8 -23 13 -21 15 3 12 35 -3 40 -9 3 -13 -3 -10 -19z"/>
<path d="M9100 1590 c0 -5 9 -10 20 -10 11 0 20 5 20 10 0 6 -9 10 -20 10 -11
0 -20 -4 -20 -10z"/>
<path d="M9155 1580 c3 -5 8 -10 11 -10 2 0 4 5 4 10 0 6 -5 10 -11 10 -5 0
-7 -4 -4 -10z"/>
<path d="M9567 1566 c-3 -8 -2 -18 3 -21 13 -8 20 9 11 24 -6 10 -10 9 -14 -3z"/>
<path d="M9380 1547 c0 -17 -5 -19 -39 -13 -23 3 -42 2 -46 -4 -4 -6 -11 -8
-16 -5 -5 4 -9 3 -9 -2 0 -11 96 -39 195 -58 44 -8 90 -17 103 -20 20 -5 22
-2 22 35 0 39 -1 40 -35 40 -19 0 -35 -4 -35 -10 0 -5 -15 -3 -32 5 -20 8 -33
20 -33 31 0 14 -9 18 -37 19 -32 2 -38 -2 -38 -18z"/>
<path d="M9476 1563 c-11 -11 -6 -23 9 -23 8 0 15 4 15 9 0 13 -16 22 -24 14z"/>
<path d="M9161 1544 c0 -11 3 -14 6 -6 3 7 2 16 -1 19 -3 4 -6 -2 -5 -13z"/>
<path d="M9180 1550 c0 -5 5 -10 10 -10 6 0 10 5 10 10 0 6 -4 10 -10 10 -5 0
-10 -4 -10 -10z"/>
<path d="M8630 1510 c-9 -6 -10 -10 -3 -10 6 0 15 5 18 10 8 12 4 12 -15 0z"/>
<path d="M8583 1478 c1 -8 -12 -14 -35 -16 -27 -2 -38 -8 -38 -19 0 -14 -11
-15 -75 -10 -61 4 -75 3 -75 -9 0 -8 7 -14 14 -14 8 0 21 -12 28 -27 12 -25
18 -28 52 -25 l39 4 -7 -35 c-4 -23 -2 -38 5 -43 15 -9 28 13 22 36 -6 23 27
35 87 31 59 -4 72 -15 64 -57 -7 -36 8 -47 24 -18 5 9 14 14 21 10 21 -13 11
-34 -19 -41 -16 -4 -30 -13 -30 -21 0 -8 -6 -14 -12 -15 -72 -6 -88 -5 -93 9
-3 8 -1 20 3 26 12 14 12 47 0 40 -4 -3 -30 -11 -58 -18 -43 -11 -52 -11 -62
2 -8 10 -9 13 -2 9 15 -9 28 23 14 37 -7 7 -10 6 -10 -2 0 -7 -9 -12 -19 -12
-10 0 -22 -7 -25 -16 -3 -8 -2 -12 4 -9 5 3 7 -1 4 -9 -7 -17 -65 -19 -76 -2
-5 8 -11 7 -20 -2 -17 -17 -57 -15 -64 2 -3 8 -12 12 -19 10 -8 -3 -29 -6 -47
-7 -22 -1 -33 -7 -33 -17 0 -8 5 -15 10 -15 6 -1 19 -6 30 -12 11 -6 49 -21
84 -33 55 -19 69 -21 100 -10 30 9 43 9 74 -4 31 -14 37 -21 37 -46 0 -22 -4
-28 -15 -24 -8 4 -15 13 -15 20 0 8 -8 18 -17 21 -10 4 -21 11 -25 17 -4 6 -8
-2 -8 -17 0 -26 -3 -28 -32 -25 -26 2 -33 -1 -33 -16 0 -27 -42 -32 -50 -5 -4
13 -14 19 -28 18 -12 -1 -30 1 -39 5 -9 4 -26 3 -37 -4 -14 -7 -21 -7 -21 0 0
5 -9 10 -20 10 -23 0 -27 -18 -5 -26 9 -4 14 -14 13 -22 -2 -11 9 -20 32 -28
41 -14 47 -23 55 -88 5 -33 10 -45 15 -36 5 8 6 18 4 22 -10 16 6 7 31 -18 17
-17 32 -23 45 -19 15 5 20 2 20 -10 0 -11 -5 -15 -15 -11 -9 3 -16 -1 -16 -9
-1 -8 -2 -19 -3 -24 -1 -12 -51 -51 -65 -51 -6 0 -11 -5 -11 -11 0 -8 -5 -7
-16 2 -9 8 -36 12 -69 10 -54 -2 -81 8 -118 43 -25 24 -48 6 -29 -24 10 -17
10 -20 -2 -20 -20 0 -29 -16 -21 -40 4 -12 21 -24 48 -31 23 -6 61 -21 83 -34
23 -14 60 -27 83 -31 29 -5 47 -15 61 -33 l19 -27 -33 -37 c-18 -20 -37 -37
-42 -37 -5 0 -33 22 -62 49 -39 36 -58 47 -76 44 -13 -3 -30 2 -40 12 -9 10
-19 15 -22 12 -9 -8 18 -77 28 -71 4 3 18 -2 30 -10 12 -9 36 -16 53 -16 l30
-1 -23 -19 -23 -19 44 -25 c24 -14 49 -26 55 -26 7 0 12 -12 12 -26 0 -25 -1
-26 -52 -19 -29 4 -87 17 -128 30 -116 35 -135 38 -149 21 -11 -13 -7 -16 23
-21 19 -4 45 -15 56 -25 13 -11 46 -21 83 -25 34 -4 71 -13 82 -19 11 -7 32
-16 48 -20 15 -3 27 -11 27 -16 0 -6 6 -10 14 -10 7 0 19 -6 25 -14 7 -8 27
-17 46 -20 19 -4 37 -12 41 -18 9 -14 -76 -4 -85 10 -6 9 -40 18 -101 27 -45
7 -140 45 -140 56 0 5 -15 9 -34 9 -44 0 -66 9 -66 26 0 9 -11 14 -31 14 -17
0 -79 16 -136 35 -58 19 -110 35 -118 35 -7 0 -18 6 -24 13 -10 13 -26 13
-144 7 -9 -1 -15 -5 -12 -11 4 -5 -3 -9 -13 -9 -52 0 -47 -64 6 -76 15 -4 45
-17 68 -30 22 -13 48 -24 58 -24 9 0 19 -7 22 -15 4 -8 12 -15 20 -15 7 0 24
-11 38 -25 14 -14 33 -25 43 -25 11 0 14 -3 7 -10 -11 -11 -74 6 -74 20 0 4
-9 6 -21 3 -11 -3 -30 -1 -42 4 -12 6 -56 20 -97 32 -41 12 -88 26 -103 31
-29 9 -57 4 -57 -10 0 -5 -13 -11 -29 -15 -16 -3 -37 -15 -46 -25 -15 -17 -16
-24 -5 -52 16 -40 36 -58 67 -58 13 0 41 -11 63 -25 22 -14 52 -25 67 -25 20
0 31 -7 38 -22 7 -15 20 -23 39 -25 64 -5 130 -24 157 -47 15 -13 45 -27 65
-31 21 -3 47 -13 58 -21 17 -12 160 -14 923 -14 l903 0 0 555 0 555 -27 1
c-53 3 -58 4 -78 15 -11 6 -46 16 -77 23 -48 10 -61 10 -87 -3 -35 -18 -87
-21 -97 -5 -14 23 31 50 90 54 74 4 84 14 46 48 -33 30 -60 35 -60 12 0 -23
-34 -18 -45 8 -9 19 -17 22 -54 19 -24 -1 -49 2 -56 8 -10 9 -16 6 -25 -9 -9
-17 -15 -19 -30 -11 -11 6 -45 8 -78 4 -58 -5 -61 -5 -96 30 -19 20 -40 36
-45 36 -5 0 -13 9 -16 21 -5 16 -13 19 -33 15 -106 -21 -116 -18 -117 29 0 26
-32 31 -79 11 -36 -15 -66 -13 -66 5 0 5 4 9 8 9 12 0 52 39 52 50 0 6 -9 10
-20 10 -11 0 -19 -6 -17 -12z m-128 -88 c3 -5 1 -10 -4 -10 -6 0 -11 5 -11 10
0 6 2 10 4 10 3 0 8 -4 11 -10z m68 -185 c-3 -9 -12 -10 -58 -6 -8 1 -15 6
-15 12 0 6 16 9 38 7 20 -2 36 -7 35 -13z m513 -15 c6 -6 43 -14 82 -17 52 -4
72 -10 72 -20 0 -20 -28 -27 -55 -13 -13 7 -35 10 -48 6 -16 -4 -29 -1 -37 9
-7 8 -25 15 -41 15 -19 0 -29 5 -29 15 0 17 40 21 56 5z m-629 -139 c7 -10 9
-22 6 -25 -7 -7 -43 23 -43 36 0 15 25 8 37 -11z m463 -111 c-6 -11 -10 -26
-9 -33 1 -6 -3 -25 -10 -41 -12 -30 -4 -45 25 -46 6 0 17 -7 24 -15 10 -12 10
-15 -3 -15 -8 0 -17 -4 -19 -10 -2 -5 -24 -4 -57 3 -30 7 -52 17 -50 22 2 6
-16 11 -41 13 -47 3 -90 19 -90 34 0 5 15 6 33 3 25 -5 39 -2 51 10 9 9 23 14
32 11 24 -9 57 13 51 34 -3 13 2 20 19 24 13 4 24 11 24 16 0 6 7 10 15 10 13
0 14 -4 5 -20z m-502 -114 c3 -12 -1 -17 -10 -14 -7 3 -15 13 -16 22 -3 12 1
17 10 14 7 -3 15 -13 16 -22z m236 -11 c11 -8 30 -15 43 -15 39 0 26 -17 -14
-18 -52 -2 -73 6 -73 29 0 23 17 24 44 4z m-294 -41 c0 -9 -7 -14 -17 -12 -25
5 -28 28 -4 28 12 0 21 -6 21 -16z m130 -10 c0 -8 -4 -14 -9 -14 -18 0 -41 12
-41 22 0 5 4 7 9 3 5 -3 12 -1 16 5 8 13 25 3 25 -16z m-165 -348 c18 -13 18
-14 -8 -9 -15 3 -30 9 -33 14 -8 14 20 10 41 -5z m-275 -246 c0 -5 -4 -10 -10
-10 -5 0 -10 5 -10 10 0 6 5 10 10 10 6 0 10 -4 10 -10z m80 -15 c0 -8 -8 -15
-19 -15 -10 0 -24 7 -31 15 -11 13 -8 15 19 15 21 0 31 -5 31 -15z m95 -25 c3
-6 -5 -10 -19 -10 -14 0 -28 5 -31 10 -3 6 5 10 19 10 14 0 28 -4 31 -10z"/>
<path d="M8478 1473 c7 -3 16 -2 19 1 4 3 -2 6 -13 5 -11 0 -14 -3 -6 -6z"/>
<path d="M8310 1454 c0 -8 5 -12 10 -9 6 3 10 10 10 16 0 5 -4 9 -10 9 -5 0
-10 -7 -10 -16z"/>
<path d="M8755 1433 c7 -33 31 -60 42 -49 4 4 2 15 -5 24 -7 9 -15 25 -18 35
-10 28 -27 20 -19 -10z"/>
<path d="M8262 1366 c-9 -20 -8 -25 4 -30 23 -9 34 2 34 30 0 31 -23 31 -38 0z"/>
<path d="M8200 1335 c-8 -9 -8 -15 -2 -15 12 0 26 19 19 26 -2 2 -10 -2 -17
-11z"/>
<path d="M8278 1313 c7 -3 16 -2 19 1 4 3 -2 6 -13 5 -11 0 -14 -3 -6 -6z"/>
<path d="M1863 1293 c-25 -5 -37 -28 -25 -50 8 -13 11 -12 27 4 10 10 31 18
47 19 31 2 45 10 35 20 -4 4 -13 2 -21 -5 -11 -9 -15 -8 -20 4 -3 8 -9 14 -13
14 -4 -1 -18 -4 -30 -6z"/>
<path d="M9434 1258 c3 -13 6 -29 6 -35 0 -7 10 -13 21 -13 17 0 20 4 15 23
-3 12 -6 28 -6 35 0 6 -10 12 -21 12 -17 0 -20 -4 -15 -22z"/>
<path d="M1998 1263 c-22 -5 -24 -29 -4 -36 18 -7 43 20 30 32 -5 4 -17 6 -26
4z"/>
<path d="M9512 1227 c-8 -10 0 -16 34 -29 l44 -16 0 29 c0 26 -3 29 -34 29
-18 0 -38 -6 -44 -13z"/>
<path d="M1926 1195 c-3 -9 0 -15 8 -15 8 0 16 7 20 15 3 9 0 15 -8 15 -8 0
-16 -7 -20 -15z"/>
<path d="M7282 967 c-12 -13 -20 -26 -16 -29 9 -9 65 23 61 35 -6 20 -23 18
-45 -6z"/>
<path d="M7180 881 c0 -12 6 -21 16 -21 9 0 14 7 12 17 -5 25 -28 28 -28 4z"/>
<path d="M7311 780 c-38 -48 -14 -43 38 7 29 28 31 33 14 33 -11 0 -34 -17
-52 -40z"/>
<path d="M7033 798 c-23 -11 -31 -42 -14 -53 6 -3 15 3 20 14 6 10 22 22 36
25 14 4 25 10 25 14 0 12 -42 12 -67 0z"/>
<path d="M6972 750 c-8 -13 -8 -20 -2 -20 6 0 13 7 17 15 9 24 -1 27 -15 5z"/>
<path d="M894 725 c19 -14 36 -12 36 6 0 5 -12 9 -27 9 -27 -1 -27 -1 -9 -15z"/>
<path d="M7240 710 c-9 -6 -10 -10 -3 -10 6 0 15 5 18 10 8 12 4 12 -15 0z"/>
<path d="M7780 696 c0 -14 7 -26 18 -30 9 -3 22 -8 28 -11 6 -3 16 6 22 20 16
34 15 38 -3 32 -8 -4 -17 -2 -20 3 -4 6 -15 10 -26 10 -13 0 -19 -7 -19 -24z"/>
<path d="M1420 675 c-45 -11 -45 -12 -14 -16 18 -3 40 0 50 8 26 19 15 21 -36
8z"/>
<path d="M6768 654 c-16 -8 -28 -21 -28 -28 0 -26 79 11 80 37 0 11 -22 8 -52
-9z"/>
<path d="M7180 660 c0 -5 5 -10 10 -10 6 0 10 5 10 10 0 6 -4 10 -10 10 -5 0
-10 -4 -10 -10z"/>
<path d="M874 628 c-4 -6 -2 -14 4 -16 7 -2 12 -11 13 -20 0 -14 2 -13 9 3 5
11 9 26 9 33 1 15 -25 16 -35 0z"/>
<path d="M7128 621 c-7 -11 -21 -21 -31 -21 -10 0 -28 -5 -40 -12 -20 -10 -19
-12 22 -24 23 -7 65 -15 92 -19 40 -6 49 -4 49 8 0 9 -6 18 -12 21 -10 5 -10
7 0 12 17 8 -4 34 -27 34 -9 0 -22 5 -28 11 -8 8 -15 6 -25 -10z"/>
<path d="M6270 599 c0 -5 5 -7 10 -4 6 3 10 8 10 11 0 2 -4 4 -10 4 -5 0 -10
-5 -10 -11z"/>
<path d="M6210 580 c0 -5 7 -7 15 -4 8 4 15 8 15 10 0 2 -7 4 -15 4 -8 0 -15
-4 -15 -10z"/>
<path d="M924 559 c-3 -6 -1 -16 5 -22 8 -8 11 -5 11 11 0 24 -5 28 -16 11z"/>
<path d="M6160 560 c-13 -9 -13 -10 0 -10 8 0 22 5 30 10 13 9 13 10 0 10 -8
0 -22 -5 -30 -10z"/>
<path d="M7558 558 c6 -6 18 -8 28 -6 14 3 12 5 -9 10 -19 3 -25 2 -19 -4z"/>
<path d="M7623 536 c10 -8 51 -20 90 -26 40 -7 77 -16 82 -20 13 -9 75 -9 75
0 0 4 -28 13 -62 20 -35 7 -68 17 -74 22 -6 4 -22 8 -35 8 -13 0 -40 2 -59 5
-32 6 -33 5 -17 -9z"/>
<path d="M880 525 c0 -8 4 -15 9 -15 5 0 11 7 15 15 3 9 0 15 -9 15 -8 0 -15
-7 -15 -15z"/>
<path d="M6915 525 c-5 -2 -32 -6 -60 -10 -43 -6 -47 -9 -32 -20 24 -17 22
-24 -15 -63 -18 -18 -26 -31 -18 -28 8 3 49 7 90 10 41 2 83 7 93 11 27 11 20
35 -10 36 -24 2 -25 2 -5 6 21 4 32 33 12 33 -5 0 -10 7 -10 15 0 14 -21 18
-45 10z"/>
<path d="M1955 350 c-8 -12 20 -24 35 -15 5 3 10 10 10 16 0 12 -37 12 -45 -1z"/>
<path d="M2200 345 c0 -7 5 -17 10 -20 11 -7 80 15 80 25 0 3 -20 7 -45 8 -33
1 -45 -2 -45 -13z"/>
<path d="M900 340 c0 -5 9 -10 21 -10 11 0 17 5 14 10 -3 6 -13 10 -21 10 -8
0 -14 -4 -14 -10z"/>
<path d="M865 331 c-3 -5 -1 -12 5 -16 5 -3 10 1 10 9 0 18 -6 21 -15 7z"/>
<path d="M960 296 c0 -9 5 -16 10 -16 6 0 10 4 10 9 0 6 -4 13 -10 16 -5 3
-10 -1 -10 -9z"/>
<path d="M2320 295 c-7 -8 -23 -15 -36 -15 -27 0 -29 -7 -9 -34 14 -18 45 -16
45 3 0 5 9 13 20 16 22 7 28 45 6 45 -7 0 -19 -7 -26 -15z"/>
<path d="M1864 275 c-18 -15 -18 -15 5 -13 14 2 26 9 29 16 5 17 -10 15 -34
-3z"/>
<path d="M2120 270 c0 -5 7 -10 15 -10 8 0 15 5 15 10 0 6 -7 10 -15 10 -8 0
-15 -4 -15 -10z"/>
<path d="M1033 230 c-13 -11 -34 -25 -48 -30 -14 -5 -25 -16 -25 -24 0 -31 85
-37 93 -7 2 10 17 25 33 32 38 19 38 43 -1 47 -20 2 -38 -4 -52 -18z"/>
<path d="M2201 201 c-8 -14 -19 -19 -38 -16 -16 2 -22 2 -15 -1 17 -8 15 -22
-5 -27 -10 -3 -1 -4 20 -2 21 1 40 -2 43 -7 4 -5 15 -7 26 -5 13 4 29 -3 45
-19 31 -31 93 -45 93 -21 0 8 6 17 14 20 9 4 14 17 13 34 -2 24 -7 28 -37 31
-19 2 -39 7 -45 12 -5 4 -26 7 -45 5 -19 -1 -40 2 -47 7 -8 6 -15 3 -22 -11z
m78 -50 c-3 -6 -10 -7 -18 -2 -7 5 -10 14 -6 21 9 14 29 -2 24 -19z"/>
<path d="M1815 190 c-3 -5 -1 -10 4 -10 6 0 11 5 11 10 0 6 -2 10 -4 10 -3 0
-8 -4 -11 -10z"/>
<path d="M1148 143 c7 -3 16 -2 19 1 4 3 -2 6 -13 5 -11 0 -14 -3 -6 -6z"/>
<path d="M2419 133 c-10 -2 -19 -12 -21 -21 -4 -13 3 -18 29 -19 29 -3 33 0
33 22 0 24 -7 27 -41 18z"/>
<path d="M7220 130 c0 -5 9 -10 21 -10 11 0 17 5 14 10 -3 6 -13 10 -21 10 -8
0 -14 -4 -14 -10z"/>
<path d="M2068 123 c7 -3 16 -2 19 1 4 3 -2 6 -13 5 -11 0 -14 -3 -6 -6z"/>
<path d="M1753 113 c-18 -7 -16 -23 2 -23 8 0 15 7 15 15 0 8 -1 15 -2 14 -2
0 -9 -3 -15 -6z"/>
<path d="M7300 100 c0 -13 7 -20 20 -20 11 0 22 1 24 3 2 1 13 -6 25 -17 11
-10 27 -16 35 -13 8 3 20 -1 26 -9 10 -12 6 -13 -31 -10 -24 2 -56 4 -71 5
-19 1 -28 6 -28 17 0 12 -5 14 -17 9 -10 -4 -28 -10 -40 -12 -22 -5 -30 -23
-17 -35 3 -3 18 -1 34 5 24 9 32 8 48 -6 16 -15 42 -17 193 -16 l174 0 -60 20
c-33 11 -73 22 -90 25 -16 2 -31 8 -33 14 -2 5 -15 10 -28 10 -13 0 -24 5 -24
10 0 6 -8 10 -17 10 -10 0 -31 7 -47 15 -42 22 -76 20 -76 -5z m195 -70 c-3
-5 -10 -10 -16 -10 -5 0 -9 5 -9 10 0 6 7 10 16 10 8 0 12 -4 9 -10z"/>
<path d="M2510 79 c0 -11 5 -17 10 -14 6 3 10 13 10 21 0 8 -4 14 -10 14 -5 0
-10 -9 -10 -21z"/>
<path d="M7150 91 c0 -12 39 -25 48 -16 7 7 -17 25 -35 25 -7 0 -13 -4 -13 -9z"/>
<path d="M1266 82 c-9 -14 12 -35 28 -29 23 9 20 37 -3 37 -11 0 -22 -4 -25
-8z"/>
<path d="M2560 76 c0 -21 35 -29 59 -14 30 18 26 24 -19 26 -30 2 -40 -1 -40
-12z"/>
<path d="M1202 73 c-10 -4 -7 -9 8 -20 24 -17 35 -12 27 12 -7 16 -13 17 -35
8z"/>
<path d="M1365 10 c-3 -5 -1 -10 4 -10 6 0 11 5 11 10 0 6 -2 10 -4 10 -3 0
-8 -4 -11 -10z"/>
<path d="M5368 13 c7 -3 16 -2 19 1 4 3 -2 6 -13 5 -11 0 -14 -3 -6 -6z"/>
<path d="M1308 3 c6 -2 18 -2 25 0 6 3 1 5 -13 5 -14 0 -19 -2 -12 -5z"/>
</g>
</svg>
